<svg xmlns="http://www.w3.org/2000/svg" width="224.531" height="160.375" viewBox="0 0 224.531 160.375">
  <metadata><?xpacket begin="﻿" id="W5M0MpCehiHzreSzNTczkc9d"?>
<x:xmpmeta xmlns:x="adobe:ns:meta/" x:xmptk="Adobe XMP Core 5.6-c138 79.159824, 2016/09/14-01:09:01        ">
   <rdf:RDF xmlns:rdf="http://www.w3.org/1999/02/22-rdf-syntax-ns#">
      <rdf:Description rdf:about=""/>
   </rdf:RDF>
</x:xmpmeta>                           
<?xpacket end="w"?></metadata>
<defs>
    <style>
      .cls-1 {
        fill: #ffaf00;
        fill-rule: evenodd;
      }
    </style>
  </defs>
  <path id="Forma_1" data-name="Forma 1" class="cls-1" d="M412.452,289.811h-184.9c-10.567,0-19.813,9.356-19.813,20.047V430.141c0,10.691,9.246,20.047,19.813,20.047H412.452c10.565,0,19.81-9.356,19.81-20.047V309.858C432.262,299.167,423.017,289.811,412.452,289.811Zm-184.9,13.364H412.452a6.277,6.277,0,0,1,6.6,6.683v10.691H220.942V309.858A6.277,6.277,0,0,1,227.547,303.175Zm191.508,30.74v10.691H220.942V333.915H419.055Zm-6.6,102.908h-184.9a6.278,6.278,0,0,1-6.6-6.683V357.97H419.055v72.17A6.277,6.277,0,0,1,412.452,436.823ZM242.074,388.71h34.339a6.683,6.683,0,0,0,0-13.366H242.074A6.683,6.683,0,0,0,242.074,388.71Zm80.566,14.7H242.074a6.683,6.683,0,0,0,0,13.366H322.64c2.642,0,6.6-2.674,6.6-6.683A6.276,6.276,0,0,0,322.64,403.411Z" transform="translate(-207.719 -289.813)"/>
</svg>
